<svg width="26" height="26" viewBox="0 0 26 26" fill="none" xmlns="http://www.w3.org/2000/svg">
<g clip-path="url(#clip0_99_4092)">
<path d="M13 0C9.55297 0 6.24406 1.37048 3.80859 3.80758C1.37061 6.24564 0.000675329 9.55212 0 13C0 16.4464 1.37109 19.7553 3.80859 22.1924C6.24406 24.6295 9.55297 26 13 26C16.447 26 19.7559 24.6295 22.1914 22.1924C24.6289 19.7553 26 16.4464 26 13C26 9.55358 24.6289 6.24467 22.1914 3.80758C19.7559 1.37048 16.447 0 13 0Z" fill="url(#paint0_linear_99_4092)"/>
<path d="M5.88442 12.8626C9.67473 11.2116 12.2016 10.123 13.465 9.59711C17.0766 8.09541 17.8261 7.8346 18.3157 7.82576C18.4233 7.82403 18.663 7.85064 18.8194 7.97709C18.9494 8.08373 18.986 8.22795 19.0043 8.32921C19.0205 8.43036 19.0429 8.66091 19.0246 8.84088C18.8296 10.8965 17.9825 15.8848 17.5519 18.1873C17.3711 19.1615 17.0116 19.4881 16.6643 19.52C15.9086 19.5894 15.3358 19.0211 14.6046 18.5419C13.461 17.7918 12.815 17.325 11.7039 16.5931C10.4202 15.7473 11.253 15.2824 11.9843 14.5227C12.1752 14.3238 15.5024 11.2983 15.5654 11.0239C15.5735 10.9895 15.5816 10.8616 15.5044 10.7941C15.4293 10.7265 15.3175 10.7496 15.2363 10.7679C15.1205 10.7939 13.2944 12.0021 9.75192 14.3923C9.23395 14.7486 8.76473 14.9222 8.34223 14.9131C7.8791 14.9031 6.98535 14.6507 6.32113 14.4349C5.50863 14.1703 4.86067 14.0303 4.91754 13.5808C4.94598 13.3468 5.26895 13.1073 5.88442 12.8626Z" fill="white"/>
</g>
<defs>
<linearGradient id="paint0_linear_99_4092" x1="1300" y1="0" x2="1300" y2="2600" gradientUnits="userSpaceOnUse">
<stop stop-color="#2AABEE"/>
<stop offset="1" stop-color="#229ED9"/>
</linearGradient>
<clipPath id="clip0_99_4092">
<rect width="26" height="26" fill="white"/>
</clipPath>
</defs>
</svg>
