<svg width="27" height="26" viewBox="0 0 27 26" fill="none" xmlns="http://www.w3.org/2000/svg">
<g clip-path="url(#clip0_99_4095)">
<path d="M1.14318 12.8445C1.14257 15.029 1.71782 17.162 2.81165 19.0421L1.03857 25.4657L7.6637 23.742C9.49612 24.7318 11.5492 25.2505 13.6356 25.2506H13.6411C20.5285 25.2506 26.1351 19.6895 26.138 12.8543C26.1393 9.54208 24.8406 6.42752 22.4809 4.0843C20.1216 1.74127 16.9838 0.450242 13.6406 0.44873C6.75228 0.44873 1.14613 6.00951 1.14329 12.8445" fill="url(#paint0_linear_99_4095)"/>
<path d="M0.697051 12.8404C0.69634 15.1035 1.29221 17.3128 2.42504 19.2602L0.588379 25.914L7.45106 24.1286C9.34195 25.1516 11.4709 25.6909 13.6372 25.6917H13.6428C20.7774 25.6917 26.5853 19.9306 26.5884 12.8507C26.5896 9.41946 25.2441 6.19294 22.8001 3.76577C20.3558 1.3389 17.1058 0.00141085 13.6428 0C6.50703 0 0.699895 5.76031 0.697051 12.8404ZM4.78393 18.9248L4.52768 18.5212C3.45051 16.8217 2.88196 14.8578 2.88278 12.8412C2.88511 6.95641 7.71177 2.16868 13.6469 2.16868C16.5211 2.16989 19.2223 3.28164 21.2539 5.29876C23.2855 7.31608 24.4034 9.99771 24.4027 12.8498C24.4 18.7346 19.5733 23.5229 13.6428 23.5229H13.6386C11.7075 23.5219 9.81371 23.0074 8.1621 22.035L7.76905 21.8037L3.6966 22.8632L4.78393 18.9247V18.9248Z" fill="url(#paint1_linear_99_4095)"/>
<path d="M10.4074 7.47219C10.165 6.93778 9.91001 6.927 9.67957 6.91762C9.49086 6.90956 9.27514 6.91017 9.05963 6.91017C8.84391 6.91017 8.49342 6.99069 8.19716 7.31166C7.9006 7.63293 7.06494 8.4093 7.06494 9.98834C7.06494 11.5675 8.22407 13.0935 8.38566 13.3079C8.54745 13.5218 10.6234 16.8659 13.9112 18.1524C16.6436 19.2216 17.1997 19.0089 17.7927 18.9553C18.3858 18.9019 19.7065 18.1792 19.976 17.4297C20.2456 16.6803 20.2456 16.038 20.1648 15.9037C20.0839 15.77 19.8682 15.6897 19.5447 15.5293C19.2212 15.3687 17.6309 14.5923 17.3344 14.4851C17.0379 14.3781 16.8223 14.3247 16.6065 14.6461C16.3908 14.9669 15.7714 15.6897 15.5826 15.9037C15.394 16.1183 15.2052 16.145 14.8818 15.9845C14.5581 15.8234 13.5164 15.4849 12.2805 14.3916C11.3189 13.5409 10.6697 12.4903 10.481 12.1689C10.2923 11.8481 10.4608 11.6741 10.623 11.5142C10.7683 11.3704 10.9466 11.1394 11.1084 10.9521C11.2697 10.7646 11.3236 10.6309 11.4314 10.4168C11.5394 10.2026 11.4853 10.0152 11.4046 9.85462C11.3236 9.69408 10.695 8.10677 10.4074 7.47219Z" fill="white"/>
</g>
<defs>
<linearGradient id="paint0_linear_99_4095" x1="1256.01" y1="2502.14" x2="1256.01" y2="0.44873" gradientUnits="userSpaceOnUse">
<stop stop-color="#1FAF38"/>
<stop offset="1" stop-color="#60D669"/>
</linearGradient>
<linearGradient id="paint1_linear_99_4095" x1="1300.59" y1="2591.4" x2="1300.59" y2="0" gradientUnits="userSpaceOnUse">
<stop stop-color="#F9F9F9"/>
<stop offset="1" stop-color="white"/>
</linearGradient>
<clipPath id="clip0_99_4095">
<rect width="26" height="26" fill="white" transform="translate(0.588379)"/>
</clipPath>
</defs>
</svg>
